<?xml version="1.0" standalone="no"?>
<!DOCTYPE svg PUBLIC "-//W3C//DTD SVG 20010904//EN"
 "http://www.w3.org/TR/2001/REC-SVG-20010904/DTD/svg10.dtd">
<svg version="1.0" xmlns="http://www.w3.org/2000/svg"
 width="192.000000pt" height="192.000000pt" viewBox="0 0 192.000000 192.000000"
 preserveAspectRatio="xMidYMid meet">
<metadata>
Created by potrace 1.11, written by Peter Selinger 2001-2013
</metadata>
<g transform="translate(0.000000,192.000000) scale(0.100000,-0.100000)"
fill="#000000" stroke="none">
<path d="M475 1802 c-11 -2 -28 -11 -38 -20 -24 -21 -23 -34 27 -229 14 -56
26 -103 26 -106 0 -2 -88 -4 -196 -4 -181 0 -197 -2 -215 -20 -30 -29 -26 -95
11 -209 36 -112 55 -134 111 -134 l39 0 0 -206 0 -206 35 -35 c35 -35 38 -36
93 -30 47 5 62 11 85 37 l27 30 0 205 0 205 49 0 c53 0 57 -3 64 -41 3 -13 13
-53 22 -89 9 -36 18 -72 20 -80 2 -8 11 -44 20 -80 9 -36 18 -72 20 -80 2 -8
20 -80 40 -160 20 -80 38 -153 40 -163 2 -9 11 -45 20 -80 9 -34 18 -69 20
-77 30 -127 47 -186 60 -206 l15 -24 419 0 c392 0 419 1 434 18 10 10 17 29
17 41 0 19 -95 172 -388 626 -36 55 -79 123 -97 150 -17 28 -56 88 -87 135
-30 47 -58 91 -62 98 -6 9 30 12 163 12 l171 0 0 -201 c0 -171 3 -205 17 -230
40 -67 180 -63 212 7 7 16 11 97 11 224 l0 200 73 0 c91 0 107 13 108 90 l2
52 -111 111 -110 110 -383 0 c-373 0 -385 0 -406 20 -13 11 -23 24 -23 28 0
15 -190 300 -204 305 -17 6 -125 10 -151 6z"/>
</g>
</svg>
